<?xml version="1.0" standalone="no"?>
<!DOCTYPE svg PUBLIC "-//W3C//DTD SVG 20010904//EN"
 "http://www.w3.org/TR/2001/REC-SVG-20010904/DTD/svg10.dtd">
<svg version="1.0" xmlns="http://www.w3.org/2000/svg"
 width="192.000000pt" height="192.000000pt" viewBox="0 0 192.000000 192.000000"
 preserveAspectRatio="xMidYMid meet">
<metadata>
Created by potrace 1.11, written by Peter Selinger 2001-2013
</metadata>
<g transform="translate(0.000000,192.000000) scale(0.100000,-0.100000)"
fill="#000000" stroke="none">
<path d="M0 960 l0 -960 960 0 960 0 0 960 0 960 -960 0 -960 0 0 -960z m1348
574 c84 -35 132 -117 132 -226 l0 -48 -69 0 -68 0 -7 53 c-11 82 -65 120 -126
87 -30 -16 -43 -80 -28 -137 10 -41 28 -65 128 -168 148 -152 163 -179 168
-310 4 -95 2 -103 -25 -155 -40 -76 -105 -110 -207 -110 -151 1 -226 79 -226
236 l0 64 70 0 70 0 0 -45 c0 -51 20 -99 45 -109 101 -38 159 69 102 186 -17
35 -60 86 -124 149 -122 119 -154 175 -161 276 -3 43 1 91 8 118 16 58 73 122
125 140 54 19 147 19 193 -1z m-579 -5 c112 -24 153 -79 159 -214 5 -117 -9
-169 -59 -217 -34 -33 -36 -37 -19 -43 34 -11 78 -71 89 -125 23 -109 9 -251
-33 -312 -12 -18 -42 -44 -66 -58 -42 -23 -56 -25 -212 -28 l-168 -4 0 506 0
506 130 0 c71 0 152 -5 179 -11z"/>
<path d="M620 1265 l0 -135 53 0 c76 0 98 25 104 117 7 111 -23 149 -119 152
l-38 1 0 -135z"/>
<path d="M620 830 l0 -160 60 0 c51 0 65 4 85 25 23 22 25 31 25 122 0 59 -5
108 -13 123 -14 28 -64 49 -119 49 l-38 1 0 -160z"/>
</g>
</svg>
